<?xml version="1.0" encoding="UTF-8"?>
<svg id="Layer_2" data-name="Layer 2" xmlns="http://www.w3.org/2000/svg" viewBox="0 0 402 105.21">
  <defs>
    <style>
      .cls-1 {
        fill: #ff9523;
      }

      .cls-2 {
        fill: #171819;
      }
    </style>
  </defs>
  <g id="Layer_1-2" data-name="Layer 1">
    <g>
      <polygon class="cls-1" points="63.26 .03 40.64 23.92 58.82 23.98 58.83 77.29 39.97 105.14 68.84 105.19 87.89 77.28 87.89 0 63.26 .03"/>
      <polygon class="cls-2" points="47.8 32.85 23.11 32.85 .58 56.86 18.92 56.9 18.9 77.2 0 105.15 28.76 105.21 47.78 77.27 47.8 32.85"/>
      <polygon class="cls-2" points="281.26 24.93 261.1 57.88 245.07 31.9 240.67 24.92 233.22 24.93 233.21 80.21 242.76 80.23 242.8 44.45 257.46 68.26 264.66 68.27 279.11 44.45 279.15 80.23 288.79 80.22 288.78 24.93 281.26 24.93"/>
      <polygon class="cls-2" points="155.62 24.92 155.63 62.53 126.93 24.96 119.59 24.94 119.59 80.24 129.3 80.22 129.36 42.73 157.9 80.2 165.33 80.15 165.32 24.92 155.62 24.92"/>
      <path class="cls-2" d="M211.91,24.92v34.08c-.18,7.69-4.74,12.87-12.46,12.98-7.05.1-12.7-4.85-12.96-12.05l-.03-35.02h-9.73s0,34.3,0,34.3c.16,9.42,5.27,17.58,14.31,20.47,5.43,1.74,11.31,1.71,16.74-.08,8.53-2.81,13.58-10.67,13.84-19.65l-.03-35.05h-9.68Z"/>
      <path class="cls-2" d="M340.86,40.31c-.18-6.08-3.51-11.34-9.12-13.76-2.61-1.18-5.31-1.63-8.26-1.63h-22.44s0,55.32,0,55.32l9.7-.03v-23.1s4.34.03,4.34.03l17.51,23.1,12.14-.06-18.42-23.49c8.81-1.22,14.82-7.59,14.55-16.39ZM310.72,49v-16.08s12.88.09,12.88.09c4.42.03,7.58,3.68,7.42,8.02.1,2.34-.69,4.52-2.55,6.05-1.77,1.31-3.78,1.88-5.93,1.89l-11.82.03Z"/>
      <polygon class="cls-2" points="365.27 59.42 378.58 24.93 369.63 24.93 360.87 46.25 346.95 80.22 357.21 80.23 362.12 67.89 381.19 67.82 377.98 59.47 365.27 59.42"/>
      <path class="cls-1" d="M381.38,30.66l-4.88,12.17,7.49,18.81,7.24,18.51c.63.47,1.18.12,1.72.12l9.04-.1-20.62-49.52Z"/>
    </g>
  </g>
</svg>